<svg xmlns:xlink="http://www.w3.org/1999/xlink" width="900" xmlns="http://www.w3.org/2000/svg" height="900" id="screenshot-822c3bd0-36e7-80dd-8003-f00b6730e447" viewBox="-0 0 900 900" style="-webkit-print-color-adjust: exact;" fill="none" version="1.1"><g id="shape-822c3bd0-36e7-80dd-8003-f00b6730e447" rx="0" ry="0"><g id="shape-822c3bd0-36e7-80dd-8003-f00b6730e448"><g class="fills" id="fills-822c3bd0-36e7-80dd-8003-f00b6730e448"><rect rx="280" ry="280" x="0" y="0" transform="matrix(1.000000, 0.000000, 0.000000, 1.000000, 0.000000, 0.000000)" width="900" height="900" style="fill: rgb(31, 31, 31); fill-opacity: 1;"/></g><g id="strokes-822c3bd0-36e7-80dd-8003-f00b6730e448" class="strokes"><g class="inner-stroke-shape" transform="matrix(1.000000, 0.000000, 0.000000, 1.000000, 0.000000, 0.000000)"><defs><clipPath id="inner-stroke-rumext-id-2-822c3bd0-36e7-80dd-8003-f00b6730e448-0"><use href="#stroke-shape-rumext-id-2-822c3bd0-36e7-80dd-8003-f00b6730e448-0"/></clipPath><rect rx="280" ry="280" x="0" y="0" width="900" height="900" id="stroke-shape-rumext-id-2-822c3bd0-36e7-80dd-8003-f00b6730e448-0" style="fill: none; stroke-width: 180; stroke: rgb(24, 24, 24); stroke-opacity: 1;"/></defs><use href="#stroke-shape-rumext-id-2-822c3bd0-36e7-80dd-8003-f00b6730e448-0" clip-path="url('#inner-stroke-rumext-id-2-822c3bd0-36e7-80dd-8003-f00b6730e448-0')"/></g></g></g><g id="shape-822c3bd0-36e7-80dd-8003-f00da749255e" width="32" height="32" rx="0" ry="0" style="fill: rgb(0, 0, 0);"><g id="shape-822c3bd0-36e7-80dd-8003-f00da74b234c"><g class="fills" id="fills-822c3bd0-36e7-80dd-8003-f00da74b234c"><path rx="0" ry="0" d="M332.899,277.031C316.500,277.031,303.719,290.545,303.719,306.574L303.719,619.763C303.719,627.504,306.590,635.398,312.620,641.372C318.751,647.447,327.240,650.656,336.858,650.656L474.424,650.656C475.247,650.656,476.065,650.606,476.875,650.505C477.859,650.606,478.853,650.656,479.856,650.656L554.581,650.656C570.794,650.656,583.938,637.513,583.938,621.300L583.938,306.387C583.938,290.174,570.794,277.031,554.581,277.031L542.907,277.031C542.656,277.031,542.406,277.034,542.157,277.041C541.910,277.034,541.662,277.031,541.414,277.031L332.899,277.031ZZ" style="fill: rgb(180, 172, 188);"/></g></g><g id="shape-822c3bd0-36e7-80dd-8003-f00da74b991f"><g class="fills" id="fills-822c3bd0-36e7-80dd-8003-f00da74b991f"><path rx="0" ry="0" d="M527.421,302.312C529.272,295.278,535.632,290.375,542.907,290.375L554.581,290.375C563.424,290.375,570.594,297.544,570.594,306.387L570.594,621.300C570.594,630.143,563.424,637.313,554.581,637.313L479.856,637.313C471.013,637.313,463.844,630.143,463.844,621.300L463.844,545.979C463.844,544.603,464.021,543.232,464.371,541.903L527.421,302.312ZZ" style="fill: rgb(205, 196, 214);"/></g></g><g id="shape-822c3bd0-36e7-80dd-8003-f00da74b9920"><g class="fills" id="fills-822c3bd0-36e7-80dd-8003-f00da74b9920"><path rx="0" ry="0" d="M317.063,306.574C317.063,297.628,324.153,290.375,332.899,290.375L541.414,290.375C550.159,290.375,557.250,297.628,557.250,306.574L557.250,557.250L479.141,635.359C477.891,636.609,476.193,637.313,474.424,637.313L336.858,637.313C323.661,637.313,317.063,628.710,317.063,619.763L317.063,306.574ZZ" style="fill: rgb(243, 238, 248);"/></g></g><g id="shape-822c3bd0-36e7-80dd-8003-f00da74bebc3"><g class="fills" id="fills-822c3bd0-36e7-80dd-8003-f00da74bebc3"><path rx="0" ry="0" d="M477.188,637.313L557.250,557.250L493.200,557.250C484.357,557.250,477.188,564.420,477.188,573.262L477.188,637.313ZZ" style="fill: rgb(180, 172, 188);"/></g></g><g id="shape-822c3bd0-36e7-80dd-8003-f00da74ce933"><g class="fills" id="fills-822c3bd0-36e7-80dd-8003-f00da74ce933"><path rx="0" ry="0" d="M377.608,271.703C371.572,263.606,361.910,258.368,351.913,258.083C333.480,258.083,319.688,273.516,319.688,291.461C319.688,309.406,333.532,322.456,346.146,324.020C356.650,325.322,357.480,311.277,348.857,310.207C341.716,309.321,333.845,302.347,333.845,291.661C333.845,280.975,341.485,272.313,351.913,272.313C362.341,272.313,369.804,282.685,369.804,290.358L371.413,290.358C371.401,290.725,371.396,291.092,371.396,291.461C371.396,309.406,385.240,322.456,397.854,324.020C408.356,325.322,409.186,311.277,400.564,310.207C393.423,309.321,385.552,302.347,385.552,291.661C385.552,280.975,393.193,272.313,403.621,272.313C414.049,272.313,421.512,282.685,421.512,290.358L423.746,290.358C423.734,290.725,423.728,291.092,423.728,291.461C423.728,309.406,437.573,322.456,450.186,324.020C460.689,325.322,461.519,311.277,452.897,310.207C445.755,309.321,437.885,302.347,437.885,291.661C437.885,280.975,445.525,272.313,455.954,272.313C466.380,272.313,473.844,282.685,473.844,290.358L475.869,290.358C475.857,290.725,475.852,291.092,475.852,291.461C475.852,309.406,489.696,322.456,502.310,324.020C512.813,325.322,513.644,311.277,505.020,310.207C497.880,309.321,490.008,302.347,490.008,291.661C490.008,280.975,497.649,272.313,508.077,272.313C518.505,272.313,525.968,282.685,525.968,290.358L540.047,290.358C540.047,272.413,524.515,258.552,508.077,258.083C497.002,258.083,487.602,263.654,481.863,271.994C475.841,263.732,466.068,258.371,455.954,258.083C444.813,258.083,435.367,263.720,429.637,272.142C423.626,263.796,413.797,258.373,403.621,258.083C392.675,258.083,383.365,263.525,377.608,271.703ZZ" style="fill: rgb(190, 190, 190);"/></g></g><g id="shape-822c3bd0-36e7-80dd-8003-f00da74d3e1d"><g class="fills" id="fills-822c3bd0-36e7-80dd-8003-f00da74d3e1d"><path rx="0" ry="0" d="M350.422,370.437C346.737,370.437,343.750,373.425,343.750,377.109C343.750,380.794,346.737,383.781,350.422,383.781L523.891,383.781C527.575,383.781,530.563,380.794,530.563,377.109C530.563,373.425,527.575,370.437,523.891,370.437L350.422,370.437ZZ" style="fill: rgb(153, 142, 164);"/></g></g><g id="shape-822c3bd0-36e7-80dd-8003-f00da74d5d3b"><g class="fills" id="fills-822c3bd0-36e7-80dd-8003-f00da74d5d3b"><path rx="0" ry="0" d="M343.750,417.141C343.750,413.456,346.737,410.469,350.422,410.469L523.891,410.469C527.575,410.469,530.563,413.456,530.563,417.141C530.563,420.825,527.575,423.812,523.891,423.812L350.422,423.812C346.737,423.812,343.750,420.825,343.750,417.141ZZ" style="fill: rgb(153, 142, 164);"/></g></g><g id="shape-822c3bd0-36e7-80dd-8003-f00da74e17fb"><g class="fills" id="fills-822c3bd0-36e7-80dd-8003-f00da74e17fb"><path rx="0" ry="0" d="M350.422,450.500C346.737,450.500,343.750,453.488,343.750,457.172C343.750,460.856,346.737,463.844,350.422,463.844L523.891,463.844C527.575,463.844,530.563,460.856,530.563,457.172C530.563,453.488,527.575,450.500,523.891,450.500L350.422,450.500ZZ" style="fill: rgb(153, 142, 164);"/></g></g><g id="shape-822c3bd0-36e7-80dd-8003-f00da74e6316"><g class="fills" id="fills-822c3bd0-36e7-80dd-8003-f00da74e6316"><path rx="0" ry="0" d="M350.422,490.531C346.737,490.531,343.750,493.519,343.750,497.203C343.750,500.887,346.737,503.875,350.422,503.875L443.828,503.875C447.512,503.875,450.500,500.887,450.500,497.203C450.500,493.519,447.512,490.531,443.828,490.531L350.422,490.531ZZ" style="fill: rgb(153, 142, 164);"/></g></g></g></g></svg>